<?xml version="1.0" encoding="UTF-8"?>
<svg xmlns="http://www.w3.org/2000/svg" xmlns:xlink="http://www.w3.org/1999/xlink" width="329pt" height="229pt" viewBox="0 0 329 229" version="1.1">
<defs>
<clipPath id="clip1">
  <path d="M 75 9 L 78 9 L 78 182.25 L 75 182.25 Z M 75 9 "/>
</clipPath>
<clipPath id="clip2">
  <path d="M 139 9 L 141 9 L 141 182.25 L 139 182.25 Z M 139 9 "/>
</clipPath>
<clipPath id="clip3">
  <path d="M 202 9 L 205 9 L 205 182.25 L 202 182.25 Z M 202 9 "/>
</clipPath>
<clipPath id="clip4">
  <path d="M 266 9 L 268 9 L 268 182.25 L 266 182.25 Z M 266 9 "/>
</clipPath>
<clipPath id="clip5">
  <path d="M 65.203125 176 L 309.328125 176 L 309.328125 178 L 65.203125 178 Z M 65.203125 176 "/>
</clipPath>
<clipPath id="clip6">
  <path d="M 65.203125 136 L 309.328125 136 L 309.328125 138 L 65.203125 138 Z M 65.203125 136 "/>
</clipPath>
<clipPath id="clip7">
  <path d="M 65.203125 96 L 309.328125 96 L 309.328125 98 L 65.203125 98 Z M 65.203125 96 "/>
</clipPath>
<clipPath id="clip8">
  <path d="M 65.203125 56 L 309.328125 56 L 309.328125 58 L 65.203125 58 Z M 65.203125 56 "/>
</clipPath>
<clipPath id="clip9">
  <path d="M 65.203125 16 L 309.328125 16 L 309.328125 18 L 65.203125 18 Z M 65.203125 16 "/>
</clipPath>
</defs>
<g id="surface1">
<rect x="0" y="0" width="329" height="229" style="fill:rgb(100%,100%,100%);fill-opacity:1;stroke:none;"/>
<path style=" stroke:none;fill-rule:nonzero;fill:rgb(100%,100%,100%);fill-opacity:1;" d="M 65.203125 182.25 L 309.328125 182.25 L 309.328125 9 L 65.203125 9 Z M 65.203125 182.25 "/>
<g clip-path="url(#clip1)" clip-rule="nonzero">
<path style="fill:none;stroke-width:0.8;stroke-linecap:square;stroke-linejoin:round;stroke:rgb(69.019608%,69.019608%,69.019608%);stroke-opacity:1;stroke-miterlimit:4;" d="M 61.0375 145.8 L 61.0375 7.2 " transform="matrix(1.25,0,0,1.25,0.000000000000028422,0)"/>
</g>
<path style="fill:none;stroke-width:0.8;stroke-linecap:butt;stroke-linejoin:round;stroke:rgb(0%,0%,0%);stroke-opacity:1;stroke-miterlimit:4;" d="M -0.00071 0 L -0.00071 3.5 " transform="matrix(1.25,0,0,1.25,76.297763,182.25)"/>
<path style=" stroke:none;fill-rule:nonzero;fill:rgb(0%,0%,0%);fill-opacity:1;" d="M 68.40625 196.0625 L 76.230469 196.0625 L 76.230469 197.097656 L 68.40625 197.097656 Z M 68.40625 196.0625 "/>
<path style=" stroke:none;fill-rule:nonzero;fill:rgb(0%,0%,0%);fill-opacity:1;" d="M 79.957031 199.460938 L 84.257812 199.460938 L 84.257812 200.5 L 78.472656 200.5 L 78.472656 199.460938 C 78.941406 198.976562 79.578125 198.328125 80.386719 197.511719 C 81.195312 196.695312 81.703125 196.167969 81.910156 195.933594 C 82.304688 195.488281 82.578125 195.113281 82.734375 194.808594 C 82.894531 194.5 82.972656 194.199219 82.972656 193.902344 C 82.972656 193.417969 82.800781 193.023438 82.460938 192.71875 C 82.121094 192.410156 81.679688 192.257812 81.132812 192.257812 C 80.746094 192.257812 80.339844 192.324219 79.910156 192.460938 C 79.480469 192.59375 79.023438 192.796875 78.535156 193.070312 L 78.535156 191.824219 C 79.03125 191.625 79.492188 191.476562 79.925781 191.375 C 80.355469 191.273438 80.753906 191.222656 81.109375 191.222656 C 82.054688 191.222656 82.808594 191.457031 83.367188 191.929688 C 83.929688 192.402344 84.210938 193.03125 84.210938 193.820312 C 84.210938 194.195312 84.140625 194.550781 84 194.886719 C 83.859375 195.222656 83.605469 195.617188 83.234375 196.074219 C 83.132812 196.191406 82.808594 196.53125 82.261719 197.097656 C 81.71875 197.660156 80.949219 198.449219 79.957031 199.460938 Z M 79.957031 199.460938 "/>
<g clip-path="url(#clip2)" clip-rule="nonzero">
<path style="fill:none;stroke-width:0.8;stroke-linecap:square;stroke-linejoin:round;stroke:rgb(69.019608%,69.019608%,69.019608%);stroke-opacity:1;stroke-miterlimit:4;" d="M 111.8375 145.8 L 111.8375 7.2 " transform="matrix(1.25,0,0,1.25,0.000000000000028422,0)"/>
</g>
<path style="fill:none;stroke-width:0.8;stroke-linecap:butt;stroke-linejoin:round;stroke:rgb(0%,0%,0%);stroke-opacity:1;stroke-miterlimit:4;" d="M -0.000556 0 L -0.000556 3.5 " transform="matrix(1.25,0,0,1.25,139.79757,182.25)"/>
<path style=" stroke:none;fill-rule:nonzero;fill:rgb(0%,0%,0%);fill-opacity:1;" d="M 139.792969 192.199219 C 139.160156 192.199219 138.683594 192.511719 138.363281 193.136719 C 138.042969 193.757812 137.882812 194.699219 137.882812 195.953125 C 137.882812 197.199219 138.042969 198.136719 138.363281 198.761719 C 138.683594 199.386719 139.160156 199.699219 139.792969 199.699219 C 140.433594 199.699219 140.914062 199.386719 141.230469 198.761719 C 141.550781 198.136719 141.710938 197.199219 141.710938 195.953125 C 141.710938 194.699219 141.550781 193.757812 141.230469 193.136719 C 140.914062 192.511719 140.433594 192.199219 139.792969 192.199219 Z M 139.792969 191.222656 C 140.816406 191.222656 141.597656 191.625 142.136719 192.433594 C 142.675781 193.242188 142.945312 194.414062 142.945312 195.953125 C 142.945312 197.484375 142.675781 198.65625 142.136719 199.464844 C 141.597656 200.273438 140.816406 200.675781 139.792969 200.675781 C 138.773438 200.675781 137.992188 200.273438 137.453125 199.464844 C 136.914062 198.65625 136.644531 197.484375 136.644531 195.953125 C 136.644531 194.414062 136.914062 193.242188 137.453125 192.433594 C 137.992188 191.625 138.773438 191.222656 139.792969 191.222656 Z M 139.792969 191.222656 "/>
<g clip-path="url(#clip3)" clip-rule="nonzero">
<path style="fill:none;stroke-width:0.8;stroke-linecap:square;stroke-linejoin:round;stroke:rgb(69.019608%,69.019608%,69.019608%);stroke-opacity:1;stroke-miterlimit:4;" d="M 162.6375 145.8 L 162.6375 7.2 " transform="matrix(1.25,0,0,1.25,0.000000000000028422,0)"/>
</g>
<path style="fill:none;stroke-width:0.8;stroke-linecap:butt;stroke-linejoin:round;stroke:rgb(0%,0%,0%);stroke-opacity:1;stroke-miterlimit:4;" d="M -0.000401 0 L -0.000401 3.5 " transform="matrix(1.25,0,0,1.25,203.297376,182.25)"/>
<path style=" stroke:none;fill-rule:nonzero;fill:rgb(0%,0%,0%);fill-opacity:1;" d="M 201.71875 199.460938 L 206.023438 199.460938 L 206.023438 200.5 L 200.238281 200.5 L 200.238281 199.460938 C 200.703125 198.976562 201.339844 198.328125 202.148438 197.511719 C 202.957031 196.695312 203.464844 196.167969 203.671875 195.933594 C 204.066406 195.488281 204.34375 195.113281 204.5 194.808594 C 204.65625 194.5 204.734375 194.199219 204.734375 193.902344 C 204.734375 193.417969 204.566406 193.023438 204.226562 192.71875 C 203.886719 192.410156 203.441406 192.257812 202.898438 192.257812 C 202.511719 192.257812 202.101562 192.324219 201.671875 192.460938 C 201.242188 192.59375 200.785156 192.796875 200.296875 193.070312 L 200.296875 191.824219 C 200.792969 191.625 201.257812 191.476562 201.6875 191.375 C 202.121094 191.273438 202.515625 191.222656 202.875 191.222656 C 203.816406 191.222656 204.570312 191.457031 205.132812 191.929688 C 205.691406 192.402344 205.972656 193.03125 205.972656 193.820312 C 205.972656 194.195312 205.902344 194.550781 205.761719 194.886719 C 205.621094 195.222656 205.367188 195.617188 204.996094 196.074219 C 204.894531 196.191406 204.570312 196.53125 204.027344 197.097656 C 203.480469 197.660156 202.710938 198.449219 201.71875 199.460938 Z M 201.71875 199.460938 "/>
<g clip-path="url(#clip4)" clip-rule="nonzero">
<path style="fill:none;stroke-width:0.8;stroke-linecap:square;stroke-linejoin:round;stroke:rgb(69.019608%,69.019608%,69.019608%);stroke-opacity:1;stroke-miterlimit:4;" d="M 213.4375 145.8 L 213.4375 7.2 " transform="matrix(1.25,0,0,1.25,0.000000000000028422,0)"/>
</g>
<path style="fill:none;stroke-width:0.8;stroke-linecap:butt;stroke-linejoin:round;stroke:rgb(0%,0%,0%);stroke-opacity:1;stroke-miterlimit:4;" d="M -0.000247 0 L -0.000247 3.5 " transform="matrix(1.25,0,0,1.25,266.797184,182.25)"/>
<path style=" stroke:none;fill-rule:nonzero;fill:rgb(0%,0%,0%);fill-opacity:1;" d="M 267.546875 192.460938 L 264.433594 197.324219 L 267.546875 197.324219 Z M 267.222656 191.386719 L 268.773438 191.386719 L 268.773438 197.324219 L 270.074219 197.324219 L 270.074219 198.351562 L 268.773438 198.351562 L 268.773438 200.5 L 267.546875 200.5 L 267.546875 198.351562 L 263.433594 198.351562 L 263.433594 197.160156 Z M 267.222656 191.386719 "/>
<path style=" stroke:none;fill-rule:nonzero;fill:rgb(0%,0%,0%);fill-opacity:1;" d="M 190.425781 210.761719 L 187.953125 214.085938 L 190.554688 217.597656 L 189.230469 217.597656 L 187.238281 214.910156 L 185.25 217.597656 L 183.925781 217.597656 L 186.582031 214.019531 L 184.152344 210.761719 L 185.476562 210.761719 L 187.289062 213.195312 L 189.101562 210.761719 Z M 190.425781 210.761719 "/>
<g clip-path="url(#clip5)" clip-rule="nonzero">
<path style="fill:none;stroke-width:0.8;stroke-linecap:square;stroke-linejoin:round;stroke:rgb(69.019608%,69.019608%,69.019608%);stroke-opacity:1;stroke-miterlimit:4;" d="M 52.1625 141.809375 L 247.4625 141.809375 " transform="matrix(1.25,0,0,1.25,0.000000000000028422,0)"/>
</g>
<path style="fill:none;stroke-width:0.8;stroke-linecap:butt;stroke-linejoin:round;stroke:rgb(0%,0%,0%);stroke-opacity:1;stroke-miterlimit:4;" d="M 0.001562 0.001496 L -3.498438 0.001496 " transform="matrix(1.25,0,0,1.25,65.201173,177.259849)"/>
<path style=" stroke:none;fill-rule:nonzero;fill:rgb(0%,0%,0%);fill-opacity:1;" d="M 27.421875 177.570312 L 35.246094 177.570312 L 35.246094 178.609375 L 27.421875 178.609375 Z M 27.421875 177.570312 "/>
<path style=" stroke:none;fill-rule:nonzero;fill:rgb(0%,0%,0%);fill-opacity:1;" d="M 38.121094 180.972656 L 40.136719 180.972656 L 40.136719 174.019531 L 37.945312 174.457031 L 37.945312 173.335938 L 40.125 172.894531 L 41.355469 172.894531 L 41.355469 180.972656 L 43.371094 180.972656 L 43.371094 182.007812 L 38.121094 182.007812 Z M 38.121094 180.972656 "/>
<path style=" stroke:none;fill-rule:nonzero;fill:rgb(0%,0%,0%);fill-opacity:1;" d="M 45.859375 180.457031 L 47.148438 180.457031 L 47.148438 182.007812 L 45.859375 182.007812 Z M 45.859375 180.457031 "/>
<path style=" stroke:none;fill-rule:nonzero;fill:rgb(0%,0%,0%);fill-opacity:1;" d="M 52.46875 173.707031 C 51.835938 173.707031 51.359375 174.019531 51.039062 174.644531 C 50.71875 175.269531 50.558594 176.207031 50.558594 177.460938 C 50.558594 178.710938 50.71875 179.648438 51.039062 180.273438 C 51.359375 180.898438 51.835938 181.210938 52.46875 181.210938 C 53.109375 181.210938 53.589844 180.898438 53.90625 180.273438 C 54.226562 179.648438 54.386719 178.710938 54.386719 177.460938 C 54.386719 176.207031 54.226562 175.269531 53.90625 174.644531 C 53.589844 174.019531 53.109375 173.707031 52.46875 173.707031 Z M 52.46875 172.730469 C 53.492188 172.730469 54.273438 173.136719 54.8125 173.945312 C 55.351562 174.75 55.621094 175.925781 55.621094 177.460938 C 55.621094 178.996094 55.351562 180.167969 54.8125 180.976562 C 54.273438 181.78125 53.492188 182.1875 52.46875 182.1875 C 51.449219 182.1875 50.667969 181.78125 50.128906 180.976562 C 49.589844 180.167969 49.320312 178.996094 49.320312 177.460938 C 49.320312 175.925781 49.589844 174.75 50.128906 173.945312 C 50.667969 173.136719 51.449219 172.730469 52.46875 172.730469 Z M 52.46875 172.730469 "/>
<g clip-path="url(#clip6)" clip-rule="nonzero">
<path style="fill:none;stroke-width:0.8;stroke-linecap:square;stroke-linejoin:round;stroke:rgb(69.019608%,69.019608%,69.019608%);stroke-opacity:1;stroke-miterlimit:4;" d="M 52.1625 109.728125 L 247.4625 109.728125 " transform="matrix(1.25,0,0,1.25,0.000000000000028422,0)"/>
</g>
<path style="fill:none;stroke-width:0.8;stroke-linecap:butt;stroke-linejoin:round;stroke:rgb(0%,0%,0%);stroke-opacity:1;stroke-miterlimit:4;" d="M 0.001562 -0.001299 L -3.498438 -0.001299 " transform="matrix(1.25,0,0,1.25,65.201173,137.16178)"/>
<path style=" stroke:none;fill-rule:nonzero;fill:rgb(0%,0%,0%);fill-opacity:1;" d="M 27.421875 137.472656 L 35.246094 137.472656 L 35.246094 138.511719 L 27.421875 138.511719 Z M 27.421875 137.472656 "/>
<path style=" stroke:none;fill-rule:nonzero;fill:rgb(0%,0%,0%);fill-opacity:1;" d="M 40.542969 133.609375 C 39.910156 133.609375 39.433594 133.921875 39.113281 134.546875 C 38.792969 135.171875 38.632812 136.109375 38.632812 137.363281 C 38.632812 138.613281 38.792969 139.550781 39.113281 140.175781 C 39.433594 140.800781 39.910156 141.113281 40.542969 141.113281 C 41.183594 141.113281 41.664062 140.800781 41.980469 140.175781 C 42.300781 139.550781 42.460938 138.613281 42.460938 137.363281 C 42.460938 136.109375 42.300781 135.171875 41.980469 134.546875 C 41.664062 133.921875 41.183594 133.609375 40.542969 133.609375 Z M 40.542969 132.632812 C 41.566406 132.632812 42.347656 133.039062 42.886719 133.847656 C 43.425781 134.652344 43.695312 135.824219 43.695312 137.363281 C 43.695312 138.898438 43.425781 140.070312 42.886719 140.878906 C 42.347656 141.683594 41.566406 142.089844 40.542969 142.089844 C 39.523438 142.089844 38.742188 141.683594 38.203125 140.878906 C 37.664062 140.070312 37.394531 138.898438 37.394531 137.363281 C 37.394531 135.824219 37.664062 134.652344 38.203125 133.847656 C 38.742188 133.039062 39.523438 132.632812 40.542969 132.632812 Z M 40.542969 132.632812 "/>
<path style=" stroke:none;fill-rule:nonzero;fill:rgb(0%,0%,0%);fill-opacity:1;" d="M 45.859375 140.359375 L 47.148438 140.359375 L 47.148438 141.910156 L 45.859375 141.910156 Z M 45.859375 140.359375 "/>
<path style=" stroke:none;fill-rule:nonzero;fill:rgb(0%,0%,0%);fill-opacity:1;" d="M 49.847656 132.796875 L 54.6875 132.796875 L 54.6875 133.835938 L 50.976562 133.835938 L 50.976562 136.070312 C 51.15625 136.007812 51.332031 135.960938 51.511719 135.933594 C 51.691406 135.902344 51.871094 135.886719 52.050781 135.886719 C 53.066406 135.886719 53.871094 136.164062 54.464844 136.722656 C 55.0625 137.28125 55.359375 138.035156 55.359375 138.988281 C 55.359375 139.96875 55.054688 140.730469 54.441406 141.273438 C 53.832031 141.816406 52.972656 142.089844 51.859375 142.089844 C 51.476562 142.089844 51.089844 142.054688 50.691406 141.992188 C 50.296875 141.925781 49.886719 141.828125 49.460938 141.699219 L 49.460938 140.457031 C 49.828125 140.65625 50.207031 140.804688 50.597656 140.902344 C 50.988281 141 51.402344 141.050781 51.835938 141.050781 C 52.539062 141.050781 53.097656 140.863281 53.507812 140.496094 C 53.917969 140.125 54.125 139.621094 54.125 138.988281 C 54.125 138.351562 53.917969 137.851562 53.507812 137.480469 C 53.097656 137.109375 52.539062 136.925781 51.835938 136.925781 C 51.507812 136.925781 51.175781 136.960938 50.847656 137.035156 C 50.523438 137.105469 50.1875 137.21875 49.847656 137.375 Z M 49.847656 132.796875 "/>
<g clip-path="url(#clip7)" clip-rule="nonzero">
<path style="fill:none;stroke-width:0.8;stroke-linecap:square;stroke-linejoin:round;stroke:rgb(69.019608%,69.019608%,69.019608%);stroke-opacity:1;stroke-miterlimit:4;" d="M 52.1625 77.65 L 247.4625 77.65 " transform="matrix(1.25,0,0,1.25,0.000000000000028422,0)"/>
</g>
<path style="fill:none;stroke-width:0.8;stroke-linecap:butt;stroke-linejoin:round;stroke:rgb(0%,0%,0%);stroke-opacity:1;stroke-miterlimit:4;" d="M 0.001562 -0.000968 L -3.498438 -0.000968 " transform="matrix(1.25,0,0,1.25,65.201173,97.06371)"/>
<path style=" stroke:none;fill-rule:nonzero;fill:rgb(0%,0%,0%);fill-opacity:1;" d="M 40.542969 93.511719 C 39.910156 93.511719 39.433594 93.824219 39.113281 94.449219 C 38.792969 95.074219 38.632812 96.011719 38.632812 97.265625 C 38.632812 98.515625 38.792969 99.453125 39.113281 100.078125 C 39.433594 100.703125 39.910156 101.015625 40.542969 101.015625 C 41.183594 101.015625 41.664062 100.703125 41.980469 100.078125 C 42.300781 99.453125 42.460938 98.515625 42.460938 97.265625 C 42.460938 96.011719 42.300781 95.074219 41.980469 94.449219 C 41.664062 93.824219 41.183594 93.511719 40.542969 93.511719 Z M 40.542969 92.535156 C 41.566406 92.535156 42.347656 92.941406 42.886719 93.75 C 43.425781 94.554688 43.695312 95.726562 43.695312 97.265625 C 43.695312 98.800781 43.425781 99.972656 42.886719 100.78125 C 42.347656 101.585938 41.566406 101.992188 40.542969 101.992188 C 39.523438 101.992188 38.742188 101.585938 38.203125 100.78125 C 37.664062 99.972656 37.394531 98.800781 37.394531 97.265625 C 37.394531 95.726562 37.664062 94.554688 38.203125 93.75 C 38.742188 92.941406 39.523438 92.535156 40.542969 92.535156 Z M 40.542969 92.535156 "/>
<path style=" stroke:none;fill-rule:nonzero;fill:rgb(0%,0%,0%);fill-opacity:1;" d="M 45.859375 100.261719 L 47.148438 100.261719 L 47.148438 101.8125 L 45.859375 101.8125 Z M 45.859375 100.261719 "/>
<path style=" stroke:none;fill-rule:nonzero;fill:rgb(0%,0%,0%);fill-opacity:1;" d="M 52.472656 93.511719 C 51.835938 93.511719 51.359375 93.824219 51.039062 94.449219 C 50.71875 95.074219 50.5625 96.011719 50.5625 97.265625 C 50.5625 98.515625 50.71875 99.453125 51.039062 100.078125 C 51.359375 100.703125 51.835938 101.015625 52.472656 101.015625 C 53.109375 101.015625 53.589844 100.703125 53.910156 100.078125 C 54.230469 99.453125 54.390625 98.515625 54.390625 97.265625 C 54.390625 96.011719 54.230469 95.074219 53.910156 94.449219 C 53.589844 93.824219 53.109375 93.511719 52.472656 93.511719 Z M 52.472656 92.535156 C 53.492188 92.535156 54.273438 92.941406 54.8125 93.75 C 55.351562 94.554688 55.621094 95.726562 55.621094 97.265625 C 55.621094 98.800781 55.351562 99.972656 54.8125 100.78125 C 54.273438 101.585938 53.492188 101.992188 52.472656 101.992188 C 51.449219 101.992188 50.671875 101.585938 50.132812 100.78125 C 49.59375 99.972656 49.324219 98.800781 49.324219 97.265625 C 49.324219 95.726562 49.59375 94.554688 50.132812 93.75 C 50.671875 92.941406 51.449219 92.535156 52.472656 92.535156 Z M 52.472656 92.535156 "/>
<g clip-path="url(#clip8)" clip-rule="nonzero">
<path style="fill:none;stroke-width:0.8;stroke-linecap:square;stroke-linejoin:round;stroke:rgb(69.019608%,69.019608%,69.019608%);stroke-opacity:1;stroke-miterlimit:4;" d="M 52.1625 45.571875 L 247.4625 45.571875 " transform="matrix(1.25,0,0,1.25,0.000000000000028422,0)"/>
</g>
<path style="fill:none;stroke-width:0.8;stroke-linecap:butt;stroke-linejoin:round;stroke:rgb(0%,0%,0%);stroke-opacity:1;stroke-miterlimit:4;" d="M 0.001562 -0.000638 L -3.498438 -0.000638 " transform="matrix(1.25,0,0,1.25,65.201173,56.965641)"/>
<path style=" stroke:none;fill-rule:nonzero;fill:rgb(0%,0%,0%);fill-opacity:1;" d="M 40.542969 53.414062 C 39.910156 53.414062 39.433594 53.726562 39.113281 54.351562 C 38.792969 54.976562 38.632812 55.914062 38.632812 57.167969 C 38.632812 58.417969 38.792969 59.351562 39.113281 59.976562 C 39.433594 60.601562 39.910156 60.914062 40.542969 60.914062 C 41.183594 60.914062 41.664062 60.601562 41.980469 59.976562 C 42.300781 59.351562 42.460938 58.417969 42.460938 57.167969 C 42.460938 55.914062 42.300781 54.976562 41.980469 54.351562 C 41.664062 53.726562 41.183594 53.414062 40.542969 53.414062 Z M 40.542969 52.4375 C 41.566406 52.4375 42.347656 52.839844 42.886719 53.648438 C 43.425781 54.457031 43.695312 55.628906 43.695312 57.167969 C 43.695312 58.703125 43.425781 59.871094 42.886719 60.679688 C 42.347656 61.488281 41.566406 61.890625 40.542969 61.890625 C 39.523438 61.890625 38.742188 61.488281 38.203125 60.679688 C 37.664062 59.871094 37.394531 58.703125 37.394531 57.167969 C 37.394531 55.628906 37.664062 54.457031 38.203125 53.648438 C 38.742188 52.839844 39.523438 52.4375 40.542969 52.4375 Z M 40.542969 52.4375 "/>
<path style=" stroke:none;fill-rule:nonzero;fill:rgb(0%,0%,0%);fill-opacity:1;" d="M 45.859375 60.164062 L 47.148438 60.164062 L 47.148438 61.714844 L 45.859375 61.714844 Z M 45.859375 60.164062 "/>
<path style=" stroke:none;fill-rule:nonzero;fill:rgb(0%,0%,0%);fill-opacity:1;" d="M 49.847656 52.601562 L 54.6875 52.601562 L 54.6875 53.640625 L 50.976562 53.640625 L 50.976562 55.871094 C 51.15625 55.8125 51.332031 55.765625 51.511719 55.734375 C 51.691406 55.707031 51.871094 55.691406 52.050781 55.691406 C 53.066406 55.691406 53.875 55.96875 54.46875 56.527344 C 55.0625 57.085938 55.359375 57.839844 55.359375 58.789062 C 55.359375 59.769531 55.054688 60.535156 54.445312 61.078125 C 53.832031 61.621094 52.972656 61.890625 51.863281 61.890625 C 51.480469 61.890625 51.089844 61.859375 50.691406 61.792969 C 50.296875 61.730469 49.886719 61.632812 49.464844 61.5 L 49.464844 60.261719 C 49.828125 60.460938 50.207031 60.609375 50.597656 60.707031 C 50.988281 60.804688 51.402344 60.851562 51.835938 60.851562 C 52.539062 60.851562 53.097656 60.667969 53.507812 60.296875 C 53.917969 59.929688 54.125 59.425781 54.125 58.789062 C 54.125 58.15625 53.917969 57.65625 53.507812 57.285156 C 53.097656 56.914062 52.539062 56.726562 51.835938 56.726562 C 51.507812 56.726562 51.179688 56.765625 50.851562 56.835938 C 50.523438 56.910156 50.1875 57.023438 49.847656 57.179688 Z M 49.847656 52.601562 "/>
<g clip-path="url(#clip9)" clip-rule="nonzero">
<path style="fill:none;stroke-width:0.8;stroke-linecap:square;stroke-linejoin:round;stroke:rgb(69.019608%,69.019608%,69.019608%);stroke-opacity:1;stroke-miterlimit:4;" d="M 52.1625 13.49375 L 247.4625 13.49375 " transform="matrix(1.25,0,0,1.25,0.000000000000028422,0)"/>
</g>
<path style="fill:none;stroke-width:0.8;stroke-linecap:butt;stroke-linejoin:round;stroke:rgb(0%,0%,0%);stroke-opacity:1;stroke-miterlimit:4;" d="M 0.001562 -0.000307 L -3.498438 -0.000307 " transform="matrix(1.25,0,0,1.25,65.201173,16.867571)"/>
<path style=" stroke:none;fill-rule:nonzero;fill:rgb(0%,0%,0%);fill-opacity:1;" d="M 38.121094 20.578125 L 40.136719 20.578125 L 40.136719 13.625 L 37.945312 14.066406 L 37.945312 12.941406 L 40.125 12.503906 L 41.355469 12.503906 L 41.355469 20.578125 L 43.371094 20.578125 L 43.371094 21.617188 L 38.121094 21.617188 Z M 38.121094 20.578125 "/>
<path style=" stroke:none;fill-rule:nonzero;fill:rgb(0%,0%,0%);fill-opacity:1;" d="M 45.859375 20.066406 L 47.148438 20.066406 L 47.148438 21.617188 L 45.859375 21.617188 Z M 45.859375 20.066406 "/>
<path style=" stroke:none;fill-rule:nonzero;fill:rgb(0%,0%,0%);fill-opacity:1;" d="M 52.472656 13.316406 C 51.835938 13.316406 51.359375 13.628906 51.039062 14.253906 C 50.71875 14.878906 50.5625 15.816406 50.5625 17.070312 C 50.5625 18.320312 50.71875 19.253906 51.039062 19.878906 C 51.359375 20.503906 51.835938 20.816406 52.472656 20.816406 C 53.109375 20.816406 53.589844 20.503906 53.910156 19.878906 C 54.230469 19.253906 54.390625 18.320312 54.390625 17.070312 C 54.390625 15.816406 54.230469 14.878906 53.910156 14.253906 C 53.589844 13.628906 53.109375 13.316406 52.472656 13.316406 Z M 52.472656 12.339844 C 53.492188 12.339844 54.273438 12.742188 54.8125 13.550781 C 55.351562 14.359375 55.621094 15.53125 55.621094 17.070312 C 55.621094 18.605469 55.351562 19.773438 54.8125 20.582031 C 54.273438 21.390625 53.492188 21.792969 52.472656 21.792969 C 51.449219 21.792969 50.671875 21.390625 50.132812 20.582031 C 49.59375 19.773438 49.324219 18.605469 49.324219 17.070312 C 49.324219 15.53125 49.59375 14.359375 50.132812 13.550781 C 50.671875 12.742188 51.449219 12.339844 52.472656 12.339844 Z M 52.472656 12.339844 "/>
<path style=" stroke:none;fill-rule:nonzero;fill:rgb(0%,0%,0%);fill-opacity:1;" d="M 9 101.761719 L 9.9375 101.761719 L 9.9375 102.835938 C 9.9375 103.238281 10.015625 103.519531 10.179688 103.675781 C 10.34375 103.832031 10.636719 103.910156 11.058594 103.910156 L 11.664062 103.910156 L 11.664062 102.0625 L 12.535156 102.0625 L 12.535156 103.910156 L 18.5 103.910156 L 18.5 105.039062 L 12.535156 105.039062 L 12.535156 106.113281 L 11.664062 106.113281 L 11.664062 105.039062 L 11.1875 105.039062 C 10.425781 105.039062 9.871094 104.863281 9.523438 104.507812 C 9.175781 104.15625 9 103.59375 9 102.824219 Z M 9 101.761719 "/>
<path style=" stroke:none;fill-rule:nonzero;fill:rgb(0%,0%,0%);fill-opacity:1;" d="M 9.015625 98.125 C 9.949219 98.671875 10.875 99.074219 11.792969 99.339844 C 12.707031 99.605469 13.632812 99.738281 14.574219 99.738281 C 15.511719 99.738281 16.445312 99.605469 17.367188 99.335938 C 18.289062 99.070312 19.214844 98.667969 20.148438 98.125 L 20.148438 99.101562 C 19.191406 99.710938 18.25 100.167969 17.328125 100.472656 C 16.402344 100.773438 15.484375 100.925781 14.574219 100.925781 C 13.667969 100.925781 12.753906 100.777344 11.835938 100.476562 C 10.914062 100.171875 9.972656 99.714844 9.015625 99.101562 Z M 9.015625 98.125 "/>
<path style=" stroke:none;fill-rule:nonzero;fill:rgb(0%,0%,0%);fill-opacity:1;" d="M 11.664062 90.261719 L 14.988281 92.734375 L 18.5 90.136719 L 18.5 91.460938 L 15.8125 93.449219 L 18.5 95.4375 L 18.5 96.765625 L 14.921875 94.109375 L 11.664062 96.539062 L 11.664062 95.214844 L 14.097656 93.402344 L 11.664062 91.589844 Z M 11.664062 90.261719 "/>
<path style=" stroke:none;fill-rule:nonzero;fill:rgb(0%,0%,0%);fill-opacity:1;" d="M 9.015625 88.726562 L 9.015625 87.75 C 9.972656 87.140625 10.914062 86.683594 11.835938 86.378906 C 12.753906 86.074219 13.667969 85.925781 14.574219 85.925781 C 15.484375 85.925781 16.402344 86.074219 17.328125 86.378906 C 18.25 86.683594 19.191406 87.140625 20.148438 87.75 L 20.148438 88.726562 C 19.214844 88.183594 18.289062 87.78125 17.367188 87.515625 C 16.445312 87.246094 15.511719 87.113281 14.574219 87.113281 C 13.632812 87.113281 12.707031 87.246094 11.792969 87.515625 C 10.875 87.78125 9.949219 88.183594 9.015625 88.726562 Z M 9.015625 88.726562 "/>
<path style="fill:none;stroke-width:1.5;stroke-linecap:square;stroke-linejoin:round;stroke:rgb(12.156863%,46.666667%,70.588235%);stroke-opacity:1;stroke-miterlimit:4;" d="M 61.0375 139.5 L 64.846875 138.7125 L 68.15 137.821875 L 71.196875 136.78125 L 73.990625 135.60625 L 76.53125 134.3125 L 79.071875 132.76875 L 81.359375 131.134375 L 83.64375 129.2375 L 85.93125 127.04375 L 88.215625 124.525 L 90.503125 121.65 L 92.7875 118.4 L 95.075 114.75625 L 97.359375 110.715625 L 99.9 105.765625 L 102.69375 99.8 L 105.740625 92.759375 L 109.80625 82.771875 L 118.696875 60.7375 L 121.996875 53.275 L 124.790625 47.5 L 127.33125 42.740625 L 129.871875 38.471875 L 132.159375 35.046875 L 134.44375 32.009375 L 136.73125 29.3375 L 139.015625 27.003125 L 141.303125 24.975 L 143.5875 23.228125 L 146.128125 21.575 L 148.66875 20.1875 L 151.4625 18.921875 L 154.509375 17.8 L 157.8125 16.840625 L 161.36875 16.040625 L 165.43125 15.353125 L 170.259375 14.771875 L 176.1 14.303125 L 183.465625 13.946875 L 193.625 13.7 L 209.88125 13.55 L 238.584375 13.5 " transform="matrix(1.25,0,0,1.25,0.000000000000028422,0)"/>
<path style="fill:none;stroke-width:0.8;stroke-linecap:square;stroke-linejoin:miter;stroke:rgb(0%,0%,0%);stroke-opacity:1;stroke-miterlimit:4;" d="M 52.1625 145.8 L 52.1625 7.2 " transform="matrix(1.25,0,0,1.25,0.000000000000028422,0)"/>
<path style="fill:none;stroke-width:0.8;stroke-linecap:square;stroke-linejoin:miter;stroke:rgb(0%,0%,0%);stroke-opacity:1;stroke-miterlimit:4;" d="M 247.4625 145.8 L 247.4625 7.2 " transform="matrix(1.25,0,0,1.25,0.000000000000028422,0)"/>
<path style="fill:none;stroke-width:0.8;stroke-linecap:square;stroke-linejoin:miter;stroke:rgb(0%,0%,0%);stroke-opacity:1;stroke-miterlimit:4;" d="M 52.159375 145.8 L 247.4625 145.8 " transform="matrix(1.25,0,0,1.25,0.000000000000028422,0)"/>
<path style="fill:none;stroke-width:0.8;stroke-linecap:square;stroke-linejoin:miter;stroke:rgb(0%,0%,0%);stroke-opacity:1;stroke-miterlimit:4;" d="M 52.159375 7.2 L 247.4625 7.2 " transform="matrix(1.25,0,0,1.25,0.000000000000028422,0)"/>
<path style="fill:none;stroke-width:1;stroke-linecap:round;stroke-linejoin:round;stroke:rgb(0%,0%,0%);stroke-opacity:1;stroke-miterlimit:4;" d="M 209.959375 66.059375 C 211.075 49.203125 212.165625 32.71875 213.23125 16.609375 " transform="matrix(1.25,0,0,1.25,0.000000000000028422,0)"/>
<path style="fill:none;stroke-width:1;stroke-linecap:round;stroke-linejoin:round;stroke:rgb(0%,0%,0%);stroke-opacity:1;stroke-miterlimit:4;" d="M 210.971875 20.46875 L 213.23125 16.609375 L 214.9625 20.73125 " transform="matrix(1.25,0,0,1.25,0.000000000000028422,0)"/>
<path style=" stroke:none;fill-rule:nonzero;fill:rgb(0%,0%,0%);fill-opacity:1;" d="M 203.671875 90.226562 L 204.859375 90.226562 L 206.996094 95.964844 L 209.132812 90.226562 L 210.324219 90.226562 L 207.757812 97.0625 L 206.234375 97.0625 Z M 203.671875 90.226562 "/>
<path style=" stroke:none;fill-rule:nonzero;fill:rgb(0%,0%,0%);fill-opacity:1;" d="M 214.980469 93.628906 C 214.074219 93.628906 213.445312 93.730469 213.09375 93.9375 C 212.742188 94.144531 212.566406 94.5 212.566406 95 C 212.566406 95.398438 212.699219 95.714844 212.960938 95.949219 C 213.226562 96.183594 213.582031 96.300781 214.03125 96.300781 C 214.65625 96.300781 215.15625 96.078125 215.53125 95.636719 C 215.910156 95.195312 216.097656 94.609375 216.097656 93.878906 L 216.097656 93.628906 Z M 217.21875 93.164062 L 217.21875 97.0625 L 216.097656 97.0625 L 216.097656 96.027344 C 215.839844 96.441406 215.519531 96.746094 215.136719 96.945312 C 214.753906 97.140625 214.289062 97.242188 213.734375 97.242188 C 213.035156 97.242188 212.476562 97.042969 212.0625 96.652344 C 211.652344 96.257812 211.445312 95.730469 211.445312 95.074219 C 211.445312 94.304688 211.703125 93.726562 212.214844 93.335938 C 212.730469 92.945312 213.5 92.75 214.519531 92.75 L 216.097656 92.75 L 216.097656 92.636719 C 216.097656 92.121094 215.925781 91.722656 215.585938 91.4375 C 215.246094 91.15625 214.769531 91.015625 214.15625 91.015625 C 213.765625 91.015625 213.382812 91.0625 213.011719 91.15625 C 212.644531 91.25 212.289062 91.390625 211.945312 91.578125 L 211.945312 90.539062 C 212.355469 90.378906 212.753906 90.261719 213.140625 90.183594 C 213.527344 90.101562 213.90625 90.0625 214.269531 90.0625 C 215.261719 90.0625 216 90.320312 216.488281 90.832031 C 216.976562 91.34375 217.21875 92.121094 217.21875 93.164062 Z M 217.21875 93.164062 "/>
<path style=" stroke:none;fill-rule:nonzero;fill:rgb(0%,0%,0%);fill-opacity:1;" d="M 225.214844 92.9375 L 225.214844 97.0625 L 224.09375 97.0625 L 224.09375 92.972656 C 224.09375 92.328125 223.964844 91.84375 223.714844 91.523438 C 223.460938 91.199219 223.082031 91.039062 222.578125 91.039062 C 221.972656 91.039062 221.492188 91.234375 221.144531 91.621094 C 220.792969 92.003906 220.617188 92.53125 220.617188 93.199219 L 220.617188 97.0625 L 219.488281 97.0625 L 219.488281 90.226562 L 220.617188 90.226562 L 220.617188 91.289062 C 220.886719 90.878906 221.203125 90.570312 221.566406 90.367188 C 221.933594 90.164062 222.351562 90.0625 222.828125 90.0625 C 223.613281 90.0625 224.207031 90.304688 224.609375 90.792969 C 225.015625 91.277344 225.214844 91.992188 225.214844 92.9375 Z M 225.214844 92.9375 "/>
<path style=" stroke:none;fill-rule:nonzero;fill:rgb(0%,0%,0%);fill-opacity:1;" d="M 227.453125 90.226562 L 228.578125 90.226562 L 228.578125 97.0625 L 227.453125 97.0625 Z M 227.453125 87.566406 L 228.578125 87.566406 L 228.578125 88.988281 L 227.453125 88.988281 Z M 227.453125 87.566406 "/>
<path style=" stroke:none;fill-rule:nonzero;fill:rgb(0%,0%,0%);fill-opacity:1;" d="M 235.285156 90.429688 L 235.285156 91.492188 C 234.96875 91.328125 234.640625 91.207031 234.296875 91.125 C 233.957031 91.042969 233.601562 91.003906 233.234375 91.003906 C 232.675781 91.003906 232.257812 91.089844 231.980469 91.257812 C 231.703125 91.429688 231.5625 91.6875 231.5625 92.027344 C 231.5625 92.289062 231.664062 92.492188 231.863281 92.640625 C 232.0625 92.789062 232.460938 92.929688 233.066406 93.066406 L 233.449219 93.152344 C 234.246094 93.320312 234.8125 93.5625 235.148438 93.875 C 235.484375 94.183594 235.652344 94.621094 235.652344 95.175781 C 235.652344 95.8125 235.402344 96.316406 234.898438 96.6875 C 234.394531 97.054688 233.707031 97.242188 232.828125 97.242188 C 232.460938 97.242188 232.078125 97.207031 231.683594 97.132812 C 231.285156 97.0625 230.867188 96.957031 230.429688 96.8125 L 230.429688 95.652344 C 230.84375 95.871094 231.253906 96.03125 231.65625 96.140625 C 232.058594 96.246094 232.457031 96.300781 232.851562 96.300781 C 233.378906 96.300781 233.785156 96.210938 234.070312 96.027344 C 234.355469 95.847656 234.5 95.59375 234.5 95.261719 C 234.5 94.957031 234.394531 94.722656 234.191406 94.5625 C 233.984375 94.398438 233.535156 94.242188 232.839844 94.089844 L 232.449219 94 C 231.753906 93.851562 231.25 93.628906 230.941406 93.324219 C 230.632812 93.023438 230.476562 92.605469 230.476562 92.078125 C 230.476562 91.433594 230.703125 90.9375 231.160156 90.589844 C 231.617188 90.238281 232.261719 90.0625 233.101562 90.0625 C 233.515625 90.0625 233.90625 90.09375 234.273438 90.15625 C 234.640625 90.214844 234.976562 90.304688 235.285156 90.429688 Z M 235.285156 90.429688 "/>
<path style=" stroke:none;fill-rule:nonzero;fill:rgb(0%,0%,0%);fill-opacity:1;" d="M 243.125 92.9375 L 243.125 97.0625 L 242 97.0625 L 242 92.972656 C 242 92.328125 241.875 91.84375 241.621094 91.523438 C 241.371094 91.199219 240.992188 91.039062 240.488281 91.039062 C 239.878906 91.039062 239.402344 91.234375 239.050781 91.621094 C 238.703125 92.003906 238.527344 92.53125 238.527344 93.199219 L 238.527344 97.0625 L 237.398438 97.0625 L 237.398438 87.566406 L 238.527344 87.566406 L 238.527344 91.289062 C 238.796875 90.878906 239.113281 90.570312 239.476562 90.367188 C 239.839844 90.164062 240.261719 90.0625 240.738281 90.0625 C 241.523438 90.0625 242.117188 90.304688 242.519531 90.792969 C 242.921875 91.277344 243.125 91.992188 243.125 92.9375 Z M 243.125 92.9375 "/>
<path style=" stroke:none;fill-rule:nonzero;fill:rgb(0%,0%,0%);fill-opacity:1;" d="M 245.363281 90.226562 L 246.484375 90.226562 L 246.484375 97.0625 L 245.363281 97.0625 Z M 245.363281 87.566406 L 246.484375 87.566406 L 246.484375 88.988281 L 245.363281 88.988281 Z M 245.363281 87.566406 "/>
<path style=" stroke:none;fill-rule:nonzero;fill:rgb(0%,0%,0%);fill-opacity:1;" d="M 254.519531 92.9375 L 254.519531 97.0625 L 253.394531 97.0625 L 253.394531 92.972656 C 253.394531 92.328125 253.269531 91.84375 253.015625 91.523438 C 252.765625 91.199219 252.386719 91.039062 251.882812 91.039062 C 251.277344 91.039062 250.796875 91.234375 250.445312 91.621094 C 250.097656 92.003906 249.921875 92.53125 249.921875 93.199219 L 249.921875 97.0625 L 248.792969 97.0625 L 248.792969 90.226562 L 249.921875 90.226562 L 249.921875 91.289062 C 250.191406 90.878906 250.507812 90.570312 250.871094 90.367188 C 251.234375 90.164062 251.65625 90.0625 252.132812 90.0625 C 252.917969 90.0625 253.511719 90.304688 253.914062 90.792969 C 254.316406 91.277344 254.519531 91.992188 254.519531 92.9375 Z M 254.519531 92.9375 "/>
<path style=" stroke:none;fill-rule:nonzero;fill:rgb(0%,0%,0%);fill-opacity:1;" d="M 261.257812 93.566406 C 261.257812 92.75 261.089844 92.121094 260.753906 91.675781 C 260.417969 91.226562 259.945312 91.003906 259.339844 91.003906 C 258.738281 91.003906 258.269531 91.226562 257.933594 91.675781 C 257.597656 92.121094 257.429688 92.75 257.429688 93.566406 C 257.429688 94.375 257.597656 95.003906 257.933594 95.453125 C 258.269531 95.898438 258.738281 96.125 259.339844 96.125 C 259.945312 96.125 260.417969 95.898438 260.753906 95.453125 C 261.089844 95.003906 261.257812 94.375 261.257812 93.566406 Z M 262.378906 96.214844 C 262.378906 97.378906 262.121094 98.242188 261.605469 98.8125 C 261.089844 99.378906 260.296875 99.664062 259.230469 99.664062 C 258.835938 99.664062 258.464844 99.632812 258.113281 99.574219 C 257.761719 99.515625 257.421875 99.425781 257.09375 99.304688 L 257.09375 98.210938 C 257.421875 98.390625 257.75 98.523438 258.070312 98.605469 C 258.390625 98.691406 258.71875 98.734375 259.054688 98.734375 C 259.789062 98.734375 260.339844 98.542969 260.707031 98.160156 C 261.074219 97.773438 261.257812 97.195312 261.257812 96.417969 L 261.257812 95.859375 C 261.023438 96.265625 260.726562 96.566406 260.367188 96.765625 C 260.003906 96.964844 259.570312 97.0625 259.066406 97.0625 C 258.226562 97.0625 257.550781 96.746094 257.039062 96.105469 C 256.527344 95.46875 256.269531 94.621094 256.269531 93.566406 C 256.269531 92.507812 256.527344 91.660156 257.039062 91.023438 C 257.550781 90.382812 258.226562 90.0625 259.066406 90.0625 C 259.570312 90.0625 260.003906 90.164062 260.367188 90.363281 C 260.726562 90.5625 261.023438 90.863281 261.257812 91.265625 L 261.257812 90.226562 L 262.378906 90.226562 Z M 262.378906 96.214844 "/>
<path style=" stroke:none;fill-rule:nonzero;fill:rgb(0%,0%,0%);fill-opacity:1;" d="M 273.164062 93.566406 C 273.164062 92.75 272.996094 92.121094 272.660156 91.675781 C 272.324219 91.226562 271.855469 91.003906 271.246094 91.003906 C 270.644531 91.003906 270.175781 91.226562 269.839844 91.675781 C 269.503906 92.121094 269.335938 92.75 269.335938 93.566406 C 269.335938 94.375 269.503906 95.003906 269.839844 95.453125 C 270.175781 95.898438 270.644531 96.125 271.246094 96.125 C 271.855469 96.125 272.324219 95.898438 272.660156 95.453125 C 272.996094 95.003906 273.164062 94.375 273.164062 93.566406 Z M 274.285156 96.214844 C 274.285156 97.378906 274.027344 98.242188 273.511719 98.8125 C 272.996094 99.378906 272.203125 99.664062 271.136719 99.664062 C 270.742188 99.664062 270.371094 99.632812 270.019531 99.574219 C 269.671875 99.515625 269.332031 99.425781 269 99.304688 L 269 98.210938 C 269.332031 98.390625 269.65625 98.523438 269.976562 98.605469 C 270.300781 98.691406 270.628906 98.734375 270.960938 98.734375 C 271.699219 98.734375 272.25 98.542969 272.613281 98.160156 C 272.980469 97.773438 273.164062 97.195312 273.164062 96.417969 L 273.164062 95.859375 C 272.933594 96.265625 272.636719 96.566406 272.273438 96.765625 C 271.910156 96.964844 271.476562 97.0625 270.972656 97.0625 C 270.136719 97.0625 269.460938 96.746094 268.945312 96.105469 C 268.433594 95.46875 268.175781 94.621094 268.175781 93.566406 C 268.175781 92.507812 268.433594 91.660156 268.945312 91.023438 C 269.460938 90.382812 270.136719 90.0625 270.972656 90.0625 C 271.476562 90.0625 271.910156 90.164062 272.273438 90.363281 C 272.636719 90.5625 272.933594 90.863281 273.164062 91.265625 L 273.164062 90.226562 L 274.285156 90.226562 Z M 274.285156 96.214844 "/>
<path style=" stroke:none;fill-rule:nonzero;fill:rgb(0%,0%,0%);fill-opacity:1;" d="M 280.5625 91.277344 C 280.433594 91.203125 280.296875 91.148438 280.148438 91.117188 C 280 91.082031 279.835938 91.0625 279.660156 91.0625 C 279.023438 91.0625 278.535156 91.269531 278.195312 91.683594 C 277.855469 92.09375 277.6875 92.6875 277.6875 93.460938 L 277.6875 97.0625 L 276.558594 97.0625 L 276.558594 90.226562 L 277.6875 90.226562 L 277.6875 91.289062 C 277.921875 90.875 278.230469 90.566406 278.609375 90.367188 C 278.988281 90.164062 279.449219 90.0625 279.988281 90.0625 C 280.066406 90.0625 280.152344 90.070312 280.246094 90.078125 C 280.339844 90.089844 280.441406 90.101562 280.554688 90.125 Z M 280.5625 91.277344 "/>
<path style=" stroke:none;fill-rule:nonzero;fill:rgb(0%,0%,0%);fill-opacity:1;" d="M 284.847656 93.628906 C 283.9375 93.628906 283.308594 93.730469 282.960938 93.9375 C 282.609375 94.144531 282.433594 94.5 282.433594 95 C 282.433594 95.398438 282.566406 95.714844 282.828125 95.949219 C 283.09375 96.183594 283.449219 96.300781 283.898438 96.300781 C 284.523438 96.300781 285.023438 96.078125 285.398438 95.636719 C 285.777344 95.195312 285.964844 94.609375 285.964844 93.878906 L 285.964844 93.628906 Z M 287.085938 93.164062 L 287.085938 97.0625 L 285.964844 97.0625 L 285.964844 96.027344 C 285.707031 96.441406 285.386719 96.746094 285.003906 96.945312 C 284.621094 97.140625 284.152344 97.242188 283.601562 97.242188 C 282.902344 97.242188 282.34375 97.042969 281.929688 96.652344 C 281.519531 96.257812 281.3125 95.730469 281.3125 95.074219 C 281.3125 94.304688 281.570312 93.726562 282.082031 93.335938 C 282.597656 92.945312 283.367188 92.75 284.386719 92.75 L 285.964844 92.75 L 285.964844 92.636719 C 285.964844 92.121094 285.792969 91.722656 285.453125 91.4375 C 285.113281 91.15625 284.636719 91.015625 284.023438 91.015625 C 283.632812 91.015625 283.25 91.0625 282.878906 91.15625 C 282.511719 91.25 282.15625 91.390625 281.8125 91.578125 L 281.8125 90.539062 C 282.222656 90.378906 282.621094 90.261719 283.007812 90.183594 C 283.394531 90.101562 283.773438 90.0625 284.136719 90.0625 C 285.128906 90.0625 285.867188 90.320312 286.355469 90.832031 C 286.84375 91.34375 287.085938 92.121094 287.085938 93.164062 Z M 287.085938 93.164062 "/>
<path style=" stroke:none;fill-rule:nonzero;fill:rgb(0%,0%,0%);fill-opacity:1;" d="M 293.898438 91.265625 L 293.898438 87.566406 L 295.019531 87.566406 L 295.019531 97.0625 L 293.898438 97.0625 L 293.898438 96.039062 C 293.660156 96.445312 293.363281 96.746094 293.003906 96.945312 C 292.644531 97.140625 292.210938 97.242188 291.707031 97.242188 C 290.878906 97.242188 290.207031 96.910156 289.6875 96.253906 C 289.171875 95.59375 288.910156 94.726562 288.910156 93.652344 C 288.910156 92.578125 289.171875 91.710938 289.6875 91.050781 C 290.207031 90.394531 290.878906 90.0625 291.707031 90.0625 C 292.210938 90.0625 292.644531 90.164062 293.003906 90.359375 C 293.363281 90.558594 293.660156 90.859375 293.898438 91.265625 Z M 290.070312 93.652344 C 290.070312 94.476562 290.242188 95.125 290.582031 95.59375 C 290.921875 96.066406 291.386719 96.300781 291.980469 96.300781 C 292.574219 96.300781 293.042969 96.066406 293.382812 95.59375 C 293.726562 95.125 293.898438 94.476562 293.898438 93.652344 C 293.898438 92.824219 293.726562 92.179688 293.382812 91.707031 C 293.042969 91.238281 292.574219 91.003906 291.980469 91.003906 C 291.386719 91.003906 290.921875 91.238281 290.582031 91.707031 C 290.242188 92.179688 290.070312 92.824219 290.070312 93.652344 Z M 290.070312 93.652344 "/>
<path style=" stroke:none;fill-rule:nonzero;fill:rgb(0%,0%,0%);fill-opacity:1;" d="M 297.335938 90.226562 L 298.457031 90.226562 L 298.457031 97.0625 L 297.335938 97.0625 Z M 297.335938 87.566406 L 298.457031 87.566406 L 298.457031 88.988281 L 297.335938 88.988281 Z M 297.335938 87.566406 "/>
<path style=" stroke:none;fill-rule:nonzero;fill:rgb(0%,0%,0%);fill-opacity:1;" d="M 306.65625 93.363281 L 306.65625 93.914062 L 301.492188 93.914062 C 301.539062 94.6875 301.773438 95.277344 302.191406 95.679688 C 302.605469 96.085938 303.1875 96.289062 303.933594 96.289062 C 304.363281 96.289062 304.78125 96.234375 305.1875 96.128906 C 305.589844 96.023438 305.992188 95.867188 306.394531 95.652344 L 306.394531 96.714844 C 305.988281 96.886719 305.574219 97.015625 305.152344 97.105469 C 304.730469 97.195312 304.300781 97.242188 303.867188 97.242188 C 302.773438 97.242188 301.910156 96.925781 301.273438 96.289062 C 300.636719 95.65625 300.320312 94.796875 300.320312 93.710938 C 300.320312 92.59375 300.621094 91.707031 301.226562 91.050781 C 301.828125 90.390625 302.644531 90.0625 303.671875 90.0625 C 304.589844 90.0625 305.316406 90.359375 305.851562 90.953125 C 306.386719 91.542969 306.65625 92.347656 306.65625 93.363281 Z M 305.53125 93.035156 C 305.523438 92.421875 305.351562 91.929688 305.015625 91.566406 C 304.679688 91.199219 304.234375 91.015625 303.683594 91.015625 C 303.054688 91.015625 302.554688 91.191406 302.179688 91.546875 C 301.800781 91.898438 301.585938 92.398438 301.527344 93.042969 Z M 305.53125 93.035156 "/>
<path style=" stroke:none;fill-rule:nonzero;fill:rgb(0%,0%,0%);fill-opacity:1;" d="M 314.179688 92.9375 L 314.179688 97.0625 L 313.058594 97.0625 L 313.058594 92.972656 C 313.058594 92.328125 312.929688 91.84375 312.679688 91.523438 C 312.425781 91.199219 312.046875 91.039062 311.542969 91.039062 C 310.9375 91.039062 310.457031 91.234375 310.109375 91.621094 C 309.757812 92.003906 309.582031 92.53125 309.582031 93.199219 L 309.582031 97.0625 L 308.453125 97.0625 L 308.453125 90.226562 L 309.582031 90.226562 L 309.582031 91.289062 C 309.851562 90.878906 310.167969 90.570312 310.53125 90.367188 C 310.898438 90.164062 311.316406 90.0625 311.792969 90.0625 C 312.578125 90.0625 313.171875 90.304688 313.574219 90.792969 C 313.980469 91.277344 314.179688 91.992188 314.179688 92.9375 Z M 314.179688 92.9375 "/>
<path style=" stroke:none;fill-rule:nonzero;fill:rgb(0%,0%,0%);fill-opacity:1;" d="M 317.53125 88.285156 L 317.53125 90.226562 L 319.84375 90.226562 L 319.84375 91.101562 L 317.53125 91.101562 L 317.53125 94.8125 C 317.53125 95.367188 317.605469 95.726562 317.757812 95.886719 C 317.910156 96.042969 318.222656 96.125 318.691406 96.125 L 319.84375 96.125 L 319.84375 97.0625 L 318.691406 97.0625 C 317.824219 97.0625 317.226562 96.902344 316.894531 96.578125 C 316.566406 96.253906 316.402344 95.664062 316.402344 94.8125 L 316.402344 91.101562 L 315.578125 91.101562 L 315.578125 90.226562 L 316.402344 90.226562 L 316.402344 88.285156 Z M 317.53125 88.285156 "/>
</g>
</svg>
