<?xml version="1.0" encoding="UTF-8"?>
<svg xmlns="http://www.w3.org/2000/svg" xmlns:xlink="http://www.w3.org/1999/xlink" width="306pt" height="229pt" viewBox="0 0 306 229" version="1.1">
<defs>
<clipPath id="clip1">
  <path d="M 63 9 L 66 9 L 66 182.25 L 63 182.25 Z M 63 9 "/>
</clipPath>
<clipPath id="clip2">
  <path d="M 119 9 L 121 9 L 121 182.25 L 119 182.25 Z M 119 9 "/>
</clipPath>
<clipPath id="clip3">
  <path d="M 174 9 L 177 9 L 177 182.25 L 174 182.25 Z M 174 9 "/>
</clipPath>
<clipPath id="clip4">
  <path d="M 230 9 L 232 9 L 232 182.25 L 230 182.25 Z M 230 9 "/>
</clipPath>
<clipPath id="clip5">
  <path d="M 286 9 L 288 9 L 288 182.25 L 286 182.25 Z M 286 9 "/>
</clipPath>
<clipPath id="clip6">
  <path d="M 53.273438 143 L 297.398438 143 L 297.398438 146 L 53.273438 146 Z M 53.273438 143 "/>
</clipPath>
<clipPath id="clip7">
  <path d="M 53.273438 94 L 297.398438 94 L 297.398438 96 L 53.273438 96 Z M 53.273438 94 "/>
</clipPath>
<clipPath id="clip8">
  <path d="M 53.273438 44 L 297.398438 44 L 297.398438 47 L 53.273438 47 Z M 53.273438 44 "/>
</clipPath>
</defs>
<g id="surface1">
<rect x="0" y="0" width="306" height="229" style="fill:rgb(100%,100%,100%);fill-opacity:1;stroke:none;"/>
<path style=" stroke:none;fill-rule:nonzero;fill:rgb(100%,100%,100%);fill-opacity:1;" d="M 53.273438 182.25 L 297.402344 182.25 L 297.402344 9 L 53.273438 9 Z M 53.273438 182.25 "/>
<g clip-path="url(#clip1)" clip-rule="nonzero">
<path style="fill:none;stroke-width:0.8;stroke-linecap:square;stroke-linejoin:round;stroke:rgb(69.019608%,69.019608%,69.019608%);stroke-opacity:1;stroke-miterlimit:4;" d="M 51.496875 145.8 L 51.496875 7.2 " transform="matrix(1.25,0,0,1.25,0,0.000000000000014211)"/>
</g>
<path style="fill:none;stroke-width:0.8;stroke-linecap:butt;stroke-linejoin:round;stroke:rgb(0%,0%,0%);stroke-opacity:1;stroke-miterlimit:4;" d="M -0.00071 0 L -0.00071 3.5 " transform="matrix(1.25,0,0,1.25,64.371981,182.25)"/>
<path style=" stroke:none;fill-rule:nonzero;fill:rgb(0%,0%,0%);fill-opacity:1;" d="M 56.480469 196.0625 L 64.304688 196.0625 L 64.304688 197.097656 L 56.480469 197.097656 Z M 56.480469 196.0625 "/>
<path style=" stroke:none;fill-rule:nonzero;fill:rgb(0%,0%,0%);fill-opacity:1;" d="M 68.03125 199.460938 L 72.332031 199.460938 L 72.332031 200.5 L 66.546875 200.5 L 66.546875 199.460938 C 67.015625 198.976562 67.652344 198.328125 68.460938 197.511719 C 69.269531 196.695312 69.777344 196.167969 69.984375 195.933594 C 70.378906 195.488281 70.652344 195.113281 70.808594 194.808594 C 70.96875 194.5 71.046875 194.199219 71.046875 193.902344 C 71.046875 193.417969 70.875 193.023438 70.535156 192.71875 C 70.195312 192.410156 69.753906 192.257812 69.207031 192.257812 C 68.820312 192.257812 68.414062 192.324219 67.984375 192.460938 C 67.554688 192.59375 67.097656 192.796875 66.609375 193.070312 L 66.609375 191.824219 C 67.105469 191.625 67.566406 191.476562 68 191.375 C 68.429688 191.273438 68.828125 191.222656 69.183594 191.222656 C 70.128906 191.222656 70.882812 191.457031 71.441406 191.929688 C 72.003906 192.402344 72.285156 193.03125 72.285156 193.820312 C 72.285156 194.195312 72.214844 194.550781 72.074219 194.886719 C 71.933594 195.222656 71.679688 195.617188 71.308594 196.074219 C 71.207031 196.191406 70.882812 196.53125 70.335938 197.097656 C 69.792969 197.660156 69.023438 198.449219 68.03125 199.460938 Z M 68.03125 199.460938 "/>
<g clip-path="url(#clip2)" clip-rule="nonzero">
<path style="fill:none;stroke-width:0.8;stroke-linecap:square;stroke-linejoin:round;stroke:rgb(69.019608%,69.019608%,69.019608%);stroke-opacity:1;stroke-miterlimit:4;" d="M 95.99375 145.8 L 95.99375 7.2 " transform="matrix(1.25,0,0,1.25,0,0.000000000000014211)"/>
</g>
<path style="fill:none;stroke-width:0.8;stroke-linecap:butt;stroke-linejoin:round;stroke:rgb(0%,0%,0%);stroke-opacity:1;stroke-miterlimit:4;" d="M -0.001443 0 L -0.001443 3.5 " transform="matrix(1.25,0,0,1.25,119.993991,182.25)"/>
<path style=" stroke:none;fill-rule:nonzero;fill:rgb(0%,0%,0%);fill-opacity:1;" d="M 112.105469 196.0625 L 119.929688 196.0625 L 119.929688 197.097656 L 112.105469 197.097656 Z M 112.105469 196.0625 "/>
<path style=" stroke:none;fill-rule:nonzero;fill:rgb(0%,0%,0%);fill-opacity:1;" d="M 122.804688 199.460938 L 124.816406 199.460938 L 124.816406 192.507812 L 122.625 192.949219 L 122.625 191.824219 L 124.804688 191.386719 L 126.039062 191.386719 L 126.039062 199.460938 L 128.050781 199.460938 L 128.050781 200.5 L 122.804688 200.5 Z M 122.804688 199.460938 "/>
<g clip-path="url(#clip3)" clip-rule="nonzero">
<path style="fill:none;stroke-width:0.8;stroke-linecap:square;stroke-linejoin:round;stroke:rgb(69.019608%,69.019608%,69.019608%);stroke-opacity:1;stroke-miterlimit:4;" d="M 140.49375 145.8 L 140.49375 7.2 " transform="matrix(1.25,0,0,1.25,0,0.000000000000014211)"/>
</g>
<path style="fill:none;stroke-width:0.8;stroke-linecap:butt;stroke-linejoin:round;stroke:rgb(0%,0%,0%);stroke-opacity:1;stroke-miterlimit:4;" d="M 0.00095 0 L 0.00095 3.5 " transform="matrix(1.25,0,0,1.25,175.616,182.25)"/>
<path style=" stroke:none;fill-rule:nonzero;fill:rgb(0%,0%,0%);fill-opacity:1;" d="M 175.613281 192.199219 C 174.976562 192.199219 174.5 192.511719 174.179688 193.136719 C 173.863281 193.757812 173.703125 194.699219 173.703125 195.953125 C 173.703125 197.199219 173.863281 198.136719 174.179688 198.761719 C 174.5 199.386719 174.976562 199.699219 175.613281 199.699219 C 176.25 199.699219 176.730469 199.386719 177.050781 198.761719 C 177.371094 198.136719 177.53125 197.199219 177.53125 195.953125 C 177.53125 194.699219 177.371094 193.757812 177.050781 193.136719 C 176.730469 192.511719 176.25 192.199219 175.613281 192.199219 Z M 175.613281 191.222656 C 176.632812 191.222656 177.414062 191.625 177.953125 192.433594 C 178.492188 193.242188 178.761719 194.414062 178.761719 195.953125 C 178.761719 197.484375 178.492188 198.65625 177.953125 199.464844 C 177.414062 200.273438 176.632812 200.675781 175.613281 200.675781 C 174.589844 200.675781 173.8125 200.273438 173.273438 199.464844 C 172.734375 198.65625 172.464844 197.484375 172.464844 195.953125 C 172.464844 194.414062 172.734375 193.242188 173.273438 192.433594 C 173.8125 191.625 174.589844 191.222656 175.613281 191.222656 Z M 175.613281 191.222656 "/>
<g clip-path="url(#clip4)" clip-rule="nonzero">
<path style="fill:none;stroke-width:0.8;stroke-linecap:square;stroke-linejoin:round;stroke:rgb(69.019608%,69.019608%,69.019608%);stroke-opacity:1;stroke-miterlimit:4;" d="M 184.990625 145.8 L 184.990625 7.2 " transform="matrix(1.25,0,0,1.25,0,0.000000000000014211)"/>
</g>
<path style="fill:none;stroke-width:0.8;stroke-linecap:butt;stroke-linejoin:round;stroke:rgb(0%,0%,0%);stroke-opacity:1;stroke-miterlimit:4;" d="M 0.000217 0 L 0.000217 3.5 " transform="matrix(1.25,0,0,1.25,231.23801,182.25)"/>
<path style=" stroke:none;fill-rule:nonzero;fill:rgb(0%,0%,0%);fill-opacity:1;" d="M 228.8125 199.460938 L 230.824219 199.460938 L 230.824219 192.507812 L 228.632812 192.949219 L 228.632812 191.824219 L 230.8125 191.386719 L 232.046875 191.386719 L 232.046875 199.460938 L 234.058594 199.460938 L 234.058594 200.5 L 228.8125 200.5 Z M 228.8125 199.460938 "/>
<g clip-path="url(#clip5)" clip-rule="nonzero">
<path style="fill:none;stroke-width:0.8;stroke-linecap:square;stroke-linejoin:round;stroke:rgb(69.019608%,69.019608%,69.019608%);stroke-opacity:1;stroke-miterlimit:4;" d="M 229.4875 145.8 L 229.4875 7.2 " transform="matrix(1.25,0,0,1.25,0,0.000000000000014211)"/>
</g>
<path style="fill:none;stroke-width:0.8;stroke-linecap:butt;stroke-linejoin:round;stroke:rgb(0%,0%,0%);stroke-opacity:1;stroke-miterlimit:4;" d="M -0.000515 0 L -0.000515 3.5 " transform="matrix(1.25,0,0,1.25,286.860019,182.25)"/>
<path style=" stroke:none;fill-rule:nonzero;fill:rgb(0%,0%,0%);fill-opacity:1;" d="M 285.28125 199.460938 L 289.585938 199.460938 L 289.585938 200.5 L 283.800781 200.5 L 283.800781 199.460938 C 284.265625 198.976562 284.902344 198.328125 285.710938 197.511719 C 286.519531 196.695312 287.027344 196.167969 287.234375 195.933594 C 287.628906 195.488281 287.90625 195.113281 288.0625 194.808594 C 288.21875 194.5 288.296875 194.199219 288.296875 193.902344 C 288.296875 193.417969 288.128906 193.023438 287.789062 192.71875 C 287.449219 192.410156 287.003906 192.257812 286.460938 192.257812 C 286.074219 192.257812 285.664062 192.324219 285.234375 192.460938 C 284.804688 192.59375 284.347656 192.796875 283.859375 193.070312 L 283.859375 191.824219 C 284.355469 191.625 284.820312 191.476562 285.25 191.375 C 285.683594 191.273438 286.078125 191.222656 286.4375 191.222656 C 287.378906 191.222656 288.132812 191.457031 288.695312 191.929688 C 289.253906 192.402344 289.535156 193.03125 289.535156 193.820312 C 289.535156 194.195312 289.464844 194.550781 289.324219 194.886719 C 289.183594 195.222656 288.929688 195.617188 288.558594 196.074219 C 288.457031 196.191406 288.132812 196.53125 287.589844 197.097656 C 287.042969 197.660156 286.273438 198.449219 285.28125 199.460938 Z M 285.28125 199.460938 "/>
<path style=" stroke:none;fill-rule:nonzero;fill:rgb(0%,0%,0%);fill-opacity:1;" d="M 178.5 210.761719 L 176.027344 214.085938 L 178.625 217.597656 L 177.300781 217.597656 L 175.3125 214.910156 L 173.324219 217.597656 L 171.996094 217.597656 L 174.652344 214.019531 L 172.222656 210.761719 L 173.546875 210.761719 L 175.359375 213.195312 L 177.171875 210.761719 Z M 178.5 210.761719 "/>
<g clip-path="url(#clip6)" clip-rule="nonzero">
<path style="fill:none;stroke-width:0.8;stroke-linecap:square;stroke-linejoin:round;stroke:rgb(69.019608%,69.019608%,69.019608%);stroke-opacity:1;stroke-miterlimit:4;" d="M 42.61875 115.696875 L 237.921875 115.696875 " transform="matrix(1.25,0,0,1.25,0,0.000000000000014211)"/>
</g>
<path style="fill:none;stroke-width:0.8;stroke-linecap:butt;stroke-linejoin:round;stroke:rgb(0%,0%,0%);stroke-opacity:1;stroke-miterlimit:4;" d="M -0.001562 -0.000496 L -3.501562 -0.000496 " transform="matrix(1.25,0,0,1.25,53.27539,144.621714)"/>
<path style=" stroke:none;fill-rule:nonzero;fill:rgb(0%,0%,0%);fill-opacity:1;" d="M 27.421875 144.933594 L 35.246094 144.933594 L 35.246094 145.96875 L 27.421875 145.96875 Z M 27.421875 144.933594 "/>
<path style=" stroke:none;fill-rule:nonzero;fill:rgb(0%,0%,0%);fill-opacity:1;" d="M 37.921875 140.257812 L 42.761719 140.257812 L 42.761719 141.296875 L 39.050781 141.296875 L 39.050781 143.527344 C 39.226562 143.46875 39.40625 143.421875 39.585938 143.390625 C 39.765625 143.363281 39.945312 143.347656 40.125 143.347656 C 41.140625 143.347656 41.945312 143.625 42.539062 144.183594 C 43.136719 144.742188 43.433594 145.496094 43.433594 146.445312 C 43.433594 147.425781 43.128906 148.191406 42.515625 148.734375 C 41.90625 149.277344 41.046875 149.546875 39.933594 149.546875 C 39.550781 149.546875 39.160156 149.515625 38.765625 149.449219 C 38.367188 149.386719 37.960938 149.289062 37.535156 149.15625 L 37.535156 147.917969 C 37.902344 148.117188 38.28125 148.265625 38.671875 148.363281 C 39.0625 148.460938 39.472656 148.507812 39.910156 148.507812 C 40.613281 148.507812 41.171875 148.324219 41.582031 147.953125 C 41.992188 147.585938 42.199219 147.082031 42.199219 146.445312 C 42.199219 145.8125 41.992188 145.3125 41.582031 144.941406 C 41.171875 144.570312 40.613281 144.382812 39.910156 144.382812 C 39.578125 144.382812 39.25 144.421875 38.921875 144.492188 C 38.597656 144.566406 38.261719 144.679688 37.921875 144.835938 Z M 37.921875 140.257812 "/>
<g clip-path="url(#clip7)" clip-rule="nonzero">
<path style="fill:none;stroke-width:0.8;stroke-linecap:square;stroke-linejoin:round;stroke:rgb(69.019608%,69.019608%,69.019608%);stroke-opacity:1;stroke-miterlimit:4;" d="M 42.61875 76.025 L 237.921875 76.025 " transform="matrix(1.25,0,0,1.25,0,0.000000000000014211)"/>
</g>
<path style="fill:none;stroke-width:0.8;stroke-linecap:butt;stroke-linejoin:round;stroke:rgb(0%,0%,0%);stroke-opacity:1;stroke-miterlimit:4;" d="M -0.001562 -0.001324 L -3.501562 -0.001324 " transform="matrix(1.25,0,0,1.25,53.27539,95.032905)"/>
<path style=" stroke:none;fill-rule:nonzero;fill:rgb(0%,0%,0%);fill-opacity:1;" d="M 40.542969 91.480469 C 39.910156 91.480469 39.433594 91.792969 39.113281 92.417969 C 38.792969 93.042969 38.632812 93.980469 38.632812 95.234375 C 38.632812 96.484375 38.792969 97.421875 39.113281 98.046875 C 39.433594 98.671875 39.910156 98.984375 40.542969 98.984375 C 41.183594 98.984375 41.664062 98.671875 41.980469 98.046875 C 42.300781 97.421875 42.460938 96.484375 42.460938 95.234375 C 42.460938 93.980469 42.300781 93.042969 41.980469 92.417969 C 41.664062 91.792969 41.183594 91.480469 40.542969 91.480469 Z M 40.542969 90.503906 C 41.566406 90.503906 42.347656 90.910156 42.886719 91.71875 C 43.425781 92.523438 43.695312 93.699219 43.695312 95.234375 C 43.695312 96.769531 43.425781 97.941406 42.886719 98.75 C 42.347656 99.554688 41.566406 99.960938 40.542969 99.960938 C 39.523438 99.960938 38.742188 99.554688 38.203125 98.75 C 37.664062 97.941406 37.394531 96.769531 37.394531 95.234375 C 37.394531 93.699219 37.664062 92.523438 38.203125 91.71875 C 38.742188 90.910156 39.523438 90.503906 40.542969 90.503906 Z M 40.542969 90.503906 "/>
<g clip-path="url(#clip8)" clip-rule="nonzero">
<path style="fill:none;stroke-width:0.8;stroke-linecap:square;stroke-linejoin:round;stroke:rgb(69.019608%,69.019608%,69.019608%);stroke-opacity:1;stroke-miterlimit:4;" d="M 42.61875 36.35625 L 237.921875 36.35625 " transform="matrix(1.25,0,0,1.25,0,0.000000000000014211)"/>
</g>
<path style="fill:none;stroke-width:0.8;stroke-linecap:butt;stroke-linejoin:round;stroke:rgb(0%,0%,0%);stroke-opacity:1;stroke-miterlimit:4;" d="M -0.001562 0.000974 L -3.501562 0.000974 " transform="matrix(1.25,0,0,1.25,53.27539,45.444095)"/>
<path style=" stroke:none;fill-rule:nonzero;fill:rgb(0%,0%,0%);fill-opacity:1;" d="M 37.921875 41.078125 L 42.761719 41.078125 L 42.761719 42.117188 L 39.050781 42.117188 L 39.050781 44.351562 C 39.230469 44.289062 39.40625 44.246094 39.585938 44.214844 C 39.765625 44.183594 39.945312 44.167969 40.125 44.167969 C 41.140625 44.167969 41.945312 44.449219 42.539062 45.003906 C 43.136719 45.5625 43.433594 46.316406 43.433594 47.269531 C 43.433594 48.25 43.128906 49.011719 42.515625 49.554688 C 41.90625 50.097656 41.046875 50.371094 39.933594 50.371094 C 39.550781 50.371094 39.164062 50.339844 38.765625 50.273438 C 38.371094 50.207031 37.960938 50.109375 37.535156 49.980469 L 37.535156 48.738281 C 37.902344 48.9375 38.28125 49.085938 38.671875 49.183594 C 39.0625 49.28125 39.476562 49.332031 39.910156 49.332031 C 40.613281 49.332031 41.171875 49.148438 41.582031 48.777344 C 41.992188 48.40625 42.199219 47.90625 42.199219 47.269531 C 42.199219 46.636719 41.992188 46.132812 41.582031 45.761719 C 41.171875 45.390625 40.613281 45.207031 39.910156 45.207031 C 39.582031 45.207031 39.25 45.242188 38.921875 45.316406 C 38.597656 45.390625 38.261719 45.503906 37.921875 45.65625 Z M 37.921875 41.078125 "/>
<path style=" stroke:none;fill-rule:nonzero;fill:rgb(0%,0%,0%);fill-opacity:1;" d="M 9 101.761719 L 9.933594 101.761719 L 9.933594 102.835938 C 9.933594 103.238281 10.015625 103.519531 10.179688 103.675781 C 10.34375 103.832031 10.636719 103.910156 11.058594 103.910156 L 11.660156 103.910156 L 11.660156 102.0625 L 12.535156 102.0625 L 12.535156 103.910156 L 18.496094 103.910156 L 18.496094 105.039062 L 12.535156 105.039062 L 12.535156 106.113281 L 11.660156 106.113281 L 11.660156 105.039062 L 11.183594 105.039062 C 10.425781 105.039062 9.871094 104.863281 9.523438 104.507812 C 9.175781 104.15625 9 103.59375 9 102.824219 Z M 9 101.761719 "/>
<path style=" stroke:none;fill-rule:nonzero;fill:rgb(0%,0%,0%);fill-opacity:1;" d="M 9.011719 98.125 C 9.949219 98.671875 10.875 99.074219 11.789062 99.339844 C 12.707031 99.605469 13.632812 99.738281 14.574219 99.738281 C 15.511719 99.738281 16.441406 99.605469 17.363281 99.335938 C 18.285156 99.070312 19.214844 98.667969 20.144531 98.125 L 20.144531 99.101562 C 19.1875 99.710938 18.25 100.167969 17.324219 100.472656 C 16.402344 100.773438 15.484375 100.925781 14.574219 100.925781 C 13.667969 100.925781 12.753906 100.777344 11.832031 100.476562 C 10.914062 100.171875 9.972656 99.714844 9.011719 99.101562 Z M 9.011719 98.125 "/>
<path style=" stroke:none;fill-rule:nonzero;fill:rgb(0%,0%,0%);fill-opacity:1;" d="M 11.660156 90.261719 L 14.988281 92.734375 L 18.496094 90.136719 L 18.496094 91.460938 L 15.8125 93.449219 L 18.496094 95.4375 L 18.496094 96.765625 L 14.921875 94.109375 L 11.660156 96.539062 L 11.660156 95.214844 L 14.097656 93.402344 L 11.660156 91.589844 Z M 11.660156 90.261719 "/>
<path style=" stroke:none;fill-rule:nonzero;fill:rgb(0%,0%,0%);fill-opacity:1;" d="M 9.011719 88.726562 L 9.011719 87.75 C 9.972656 87.140625 10.914062 86.683594 11.832031 86.378906 C 12.753906 86.074219 13.667969 85.925781 14.574219 85.925781 C 15.484375 85.925781 16.402344 86.074219 17.324219 86.378906 C 18.25 86.683594 19.1875 87.140625 20.144531 87.75 L 20.144531 88.726562 C 19.214844 88.183594 18.285156 87.78125 17.363281 87.515625 C 16.441406 87.246094 15.511719 87.113281 14.574219 87.113281 C 13.632812 87.113281 12.707031 87.246094 11.789062 87.515625 C 10.875 87.78125 9.949219 88.183594 9.011719 88.726562 Z M 9.011719 88.726562 "/>
<path style="fill:none;stroke-width:1.5;stroke-linecap:square;stroke-linejoin:round;stroke:rgb(12.156863%,46.666667%,70.588235%);stroke-opacity:1;stroke-miterlimit:4;" d="M 51.496875 139.5 L 54.6125 133.065625 L 57.728125 127.08125 L 60.840625 121.53125 L 63.95625 116.4 L 67.071875 111.66875 L 70.1875 107.321875 L 73.3 103.34375 L 76.415625 99.71875 L 79.53125 96.428125 L 82.646875 93.45625 L 85.759375 90.790625 L 88.875 88.409375 L 91.990625 86.3 L 95.10625 84.446875 L 98.21875 82.828125 L 101.78125 81.25 L 105.340625 79.9375 L 108.9 78.865625 L 112.459375 78.009375 L 116.465625 77.275 L 120.9125 76.703125 L 125.809375 76.3125 L 131.59375 76.090625 L 140.046875 76.025 L 151.171875 75.915625 L 156.95625 75.625 L 161.853125 75.15 L 166.3 74.478125 L 170.30625 73.640625 L 173.865625 72.678125 L 177.425 71.490625 L 180.984375 70.046875 L 184.1 68.559375 L 187.215625 66.840625 L 190.33125 64.878125 L 193.44375 62.65625 L 196.559375 60.15625 L 199.675 57.359375 L 202.790625 54.25625 L 205.903125 50.821875 L 209.01875 47.05 L 212.134375 42.915625 L 215.25 38.40625 L 218.3625 33.503125 L 221.478125 28.19375 L 224.59375 22.459375 L 227.709375 16.284375 L 229.04375 13.5 " transform="matrix(1.25,0,0,1.25,0,0.000000000000014211)"/>
<path style="fill:none;stroke-width:0.8;stroke-linecap:square;stroke-linejoin:miter;stroke:rgb(0%,0%,0%);stroke-opacity:1;stroke-miterlimit:4;" d="M 42.61875 145.8 L 42.61875 7.2 " transform="matrix(1.25,0,0,1.25,0,0.000000000000014211)"/>
<path style="fill:none;stroke-width:0.8;stroke-linecap:square;stroke-linejoin:miter;stroke:rgb(0%,0%,0%);stroke-opacity:1;stroke-miterlimit:4;" d="M 237.921875 145.8 L 237.921875 7.2 " transform="matrix(1.25,0,0,1.25,0,0.000000000000014211)"/>
<path style="fill:none;stroke-width:0.8;stroke-linecap:square;stroke-linejoin:miter;stroke:rgb(0%,0%,0%);stroke-opacity:1;stroke-miterlimit:4;" d="M 42.621875 145.8 L 237.921875 145.8 " transform="matrix(1.25,0,0,1.25,0,0.000000000000014211)"/>
<path style="fill:none;stroke-width:0.8;stroke-linecap:square;stroke-linejoin:miter;stroke:rgb(0%,0%,0%);stroke-opacity:1;stroke-miterlimit:4;" d="M 42.621875 7.2 L 237.921875 7.2 " transform="matrix(1.25,0,0,1.25,0,0.000000000000014211)"/>
<path style="fill:none;stroke-width:1;stroke-linecap:round;stroke-linejoin:round;stroke:rgb(0%,0%,0%);stroke-opacity:1;stroke-miterlimit:4;" d="M 146.2625 104.1375 C 144.48125 95.946875 142.778125 88.11875 141.15625 80.659375 " transform="matrix(1.25,0,0,1.25,0,0.000000000000014211)"/>
<path style="fill:none;stroke-width:1;stroke-linecap:round;stroke-linejoin:round;stroke:rgb(0%,0%,0%);stroke-opacity:1;stroke-miterlimit:4;" d="M 140.05 84.990625 L 141.15625 80.659375 L 143.959375 84.140625 " transform="matrix(1.25,0,0,1.25,0,0.000000000000014211)"/>
<path style=" stroke:none;fill-rule:nonzero;fill:rgb(0%,0%,0%);fill-opacity:1;" d="M 152.226562 137.988281 L 152.226562 139.050781 C 151.910156 138.886719 151.582031 138.765625 151.238281 138.683594 C 150.898438 138.601562 150.542969 138.5625 150.175781 138.5625 C 149.621094 138.5625 149.203125 138.644531 148.921875 138.816406 C 148.644531 138.988281 148.503906 139.242188 148.503906 139.585938 C 148.503906 139.847656 148.605469 140.050781 148.804688 140.199219 C 149.003906 140.347656 149.402344 140.488281 150.007812 140.625 L 150.390625 140.710938 C 151.1875 140.878906 151.753906 141.121094 152.089844 141.433594 C 152.425781 141.742188 152.59375 142.175781 152.59375 142.734375 C 152.59375 143.371094 152.34375 143.875 151.839844 144.246094 C 151.339844 144.613281 150.648438 144.800781 149.769531 144.800781 C 149.402344 144.800781 149.019531 144.761719 148.625 144.691406 C 148.226562 144.621094 147.808594 144.511719 147.371094 144.371094 L 147.371094 143.210938 C 147.785156 143.425781 148.195312 143.589844 148.597656 143.699219 C 149 143.804688 149.398438 143.859375 149.792969 143.859375 C 150.324219 143.859375 150.730469 143.765625 151.011719 143.585938 C 151.296875 143.40625 151.441406 143.148438 151.441406 142.820312 C 151.441406 142.515625 151.335938 142.28125 151.132812 142.121094 C 150.925781 141.957031 150.476562 141.800781 149.78125 141.648438 L 149.390625 141.558594 C 148.695312 141.410156 148.191406 141.1875 147.882812 140.882812 C 147.574219 140.578125 147.417969 140.164062 147.417969 139.636719 C 147.417969 138.992188 147.648438 138.496094 148.101562 138.148438 C 148.558594 137.796875 149.207031 137.621094 150.042969 137.621094 C 150.457031 137.621094 150.847656 137.652344 151.214844 137.714844 C 151.582031 137.773438 151.917969 137.863281 152.226562 137.988281 Z M 152.226562 137.988281 "/>
<path style=" stroke:none;fill-rule:nonzero;fill:rgb(0%,0%,0%);fill-opacity:1;" d="M 157.488281 141.1875 C 156.582031 141.1875 155.953125 141.289062 155.601562 141.496094 C 155.253906 141.703125 155.078125 142.058594 155.078125 142.558594 C 155.078125 142.957031 155.210938 143.273438 155.472656 143.507812 C 155.734375 143.742188 156.09375 143.859375 156.542969 143.859375 C 157.167969 143.859375 157.667969 143.636719 158.042969 143.195312 C 158.417969 142.753906 158.605469 142.167969 158.605469 141.4375 L 158.605469 141.1875 Z M 159.730469 140.722656 L 159.730469 144.621094 L 158.605469 144.621094 L 158.605469 143.585938 C 158.351562 144 158.03125 144.304688 157.648438 144.503906 C 157.265625 144.699219 156.796875 144.800781 156.242188 144.800781 C 155.542969 144.800781 154.988281 144.601562 154.574219 144.210938 C 154.160156 143.816406 153.953125 143.289062 153.953125 142.632812 C 153.953125 141.863281 154.210938 141.285156 154.726562 140.894531 C 155.242188 140.503906 156.011719 140.308594 157.03125 140.308594 L 158.605469 140.308594 L 158.605469 140.195312 C 158.605469 139.679688 158.4375 139.277344 158.097656 138.996094 C 157.757812 138.714844 157.28125 138.574219 156.664062 138.574219 C 156.273438 138.574219 155.894531 138.621094 155.523438 138.714844 C 155.152344 138.808594 154.796875 138.949219 154.457031 139.136719 L 154.457031 138.097656 C 154.867188 137.9375 155.265625 137.820312 155.652344 137.742188 C 156.039062 137.660156 156.414062 137.621094 156.78125 137.621094 C 157.769531 137.621094 158.507812 137.878906 158.996094 138.390625 C 159.484375 138.902344 159.730469 139.679688 159.730469 140.722656 Z M 159.730469 140.722656 "/>
<path style=" stroke:none;fill-rule:nonzero;fill:rgb(0%,0%,0%);fill-opacity:1;" d="M 166.539062 138.824219 L 166.539062 135.125 L 167.664062 135.125 L 167.664062 144.621094 L 166.539062 144.621094 L 166.539062 143.597656 C 166.304688 144.003906 166.007812 144.304688 165.644531 144.503906 C 165.285156 144.699219 164.855469 144.800781 164.347656 144.800781 C 163.523438 144.800781 162.851562 144.46875 162.332031 143.8125 C 161.8125 143.152344 161.554688 142.285156 161.554688 141.210938 C 161.554688 140.136719 161.8125 139.269531 162.332031 138.609375 C 162.851562 137.949219 163.523438 137.621094 164.347656 137.621094 C 164.855469 137.621094 165.285156 137.71875 165.644531 137.917969 C 166.007812 138.113281 166.304688 138.417969 166.539062 138.824219 Z M 162.714844 141.210938 C 162.714844 142.035156 162.882812 142.683594 163.222656 143.152344 C 163.5625 143.621094 164.03125 143.859375 164.625 143.859375 C 165.21875 143.859375 165.6875 143.621094 166.027344 143.152344 C 166.371094 142.683594 166.539062 142.035156 166.539062 141.210938 C 166.539062 140.382812 166.371094 139.734375 166.027344 139.265625 C 165.6875 138.796875 165.21875 138.5625 164.625 138.5625 C 164.03125 138.5625 163.5625 138.796875 163.222656 139.265625 C 162.882812 139.734375 162.714844 140.382812 162.714844 141.210938 Z M 162.714844 141.210938 "/>
<path style=" stroke:none;fill-rule:nonzero;fill:rgb(0%,0%,0%);fill-opacity:1;" d="M 174.476562 138.824219 L 174.476562 135.125 L 175.597656 135.125 L 175.597656 144.621094 L 174.476562 144.621094 L 174.476562 143.597656 C 174.238281 144.003906 173.941406 144.304688 173.582031 144.503906 C 173.222656 144.699219 172.789062 144.800781 172.285156 144.800781 C 171.457031 144.800781 170.785156 144.46875 170.265625 143.8125 C 169.75 143.152344 169.488281 142.285156 169.488281 141.210938 C 169.488281 140.136719 169.75 139.269531 170.265625 138.609375 C 170.785156 137.949219 171.457031 137.621094 172.285156 137.621094 C 172.789062 137.621094 173.222656 137.71875 173.582031 137.917969 C 173.941406 138.113281 174.238281 138.417969 174.476562 138.824219 Z M 170.648438 141.210938 C 170.648438 142.035156 170.820312 142.683594 171.160156 143.152344 C 171.5 143.621094 171.964844 143.859375 172.558594 143.859375 C 173.152344 143.859375 173.621094 143.621094 173.960938 143.152344 C 174.304688 142.683594 174.476562 142.035156 174.476562 141.210938 C 174.476562 140.382812 174.304688 139.734375 173.960938 139.265625 C 173.621094 138.796875 173.152344 138.5625 172.558594 138.5625 C 171.964844 138.5625 171.5 138.796875 171.160156 139.265625 C 170.820312 139.734375 170.648438 140.382812 170.648438 141.210938 Z M 170.648438 141.210938 "/>
<path style=" stroke:none;fill-rule:nonzero;fill:rgb(0%,0%,0%);fill-opacity:1;" d="M 177.910156 135.125 L 179.035156 135.125 L 179.035156 144.621094 L 177.910156 144.621094 Z M 177.910156 135.125 "/>
<path style=" stroke:none;fill-rule:nonzero;fill:rgb(0%,0%,0%);fill-opacity:1;" d="M 187.230469 140.921875 L 187.230469 141.472656 L 182.066406 141.472656 C 182.117188 142.246094 182.351562 142.832031 182.765625 143.238281 C 183.183594 143.644531 183.765625 143.847656 184.507812 143.847656 C 184.941406 143.847656 185.359375 143.792969 185.761719 143.6875 C 186.167969 143.582031 186.570312 143.421875 186.96875 143.210938 L 186.96875 144.273438 C 186.566406 144.445312 186.152344 144.574219 185.730469 144.664062 C 185.308594 144.753906 184.878906 144.800781 184.441406 144.800781 C 183.351562 144.800781 182.488281 144.480469 181.851562 143.847656 C 181.214844 143.210938 180.894531 142.351562 180.894531 141.269531 C 180.894531 140.152344 181.199219 139.265625 181.800781 138.609375 C 182.40625 137.949219 183.222656 137.621094 184.246094 137.621094 C 185.167969 137.621094 185.894531 137.917969 186.429688 138.511719 C 186.964844 139.101562 187.230469 139.90625 187.230469 140.921875 Z M 186.109375 140.59375 C 186.101562 139.980469 185.929688 139.488281 185.59375 139.125 C 185.257812 138.757812 184.8125 138.574219 184.257812 138.574219 C 183.632812 138.574219 183.132812 138.75 182.753906 139.105469 C 182.378906 139.457031 182.164062 139.957031 182.105469 140.601562 Z M 186.109375 140.59375 "/>
<path style=" stroke:none;fill-rule:nonzero;fill:rgb(0%,0%,0%);fill-opacity:1;" d="M 194.132812 143.597656 L 194.132812 147.222656 L 193.003906 147.222656 L 193.003906 137.785156 L 194.132812 137.785156 L 194.132812 138.824219 C 194.371094 138.417969 194.667969 138.113281 195.027344 137.917969 C 195.390625 137.71875 195.820312 137.621094 196.320312 137.621094 C 197.152344 137.621094 197.824219 137.949219 198.34375 138.609375 C 198.863281 139.269531 199.121094 140.136719 199.121094 141.210938 C 199.121094 142.285156 198.863281 143.152344 198.34375 143.8125 C 197.824219 144.46875 197.152344 144.800781 196.320312 144.800781 C 195.820312 144.800781 195.390625 144.699219 195.027344 144.503906 C 194.667969 144.304688 194.371094 144.003906 194.132812 143.597656 Z M 197.957031 141.210938 C 197.957031 140.382812 197.785156 139.734375 197.445312 139.265625 C 197.105469 138.796875 196.640625 138.5625 196.046875 138.5625 C 195.453125 138.5625 194.984375 138.796875 194.644531 139.265625 C 194.304688 139.734375 194.132812 140.382812 194.132812 141.210938 C 194.132812 142.035156 194.304688 142.683594 194.644531 143.152344 C 194.984375 143.621094 195.453125 143.859375 196.046875 143.859375 C 196.640625 143.859375 197.105469 143.621094 197.445312 143.152344 C 197.785156 142.683594 197.957031 142.035156 197.957031 141.210938 Z M 197.957031 141.210938 "/>
<path style=" stroke:none;fill-rule:nonzero;fill:rgb(0%,0%,0%);fill-opacity:1;" d="M 203.632812 138.574219 C 203.03125 138.574219 202.554688 138.808594 202.203125 139.277344 C 201.855469 139.746094 201.679688 140.390625 201.679688 141.210938 C 201.679688 142.027344 201.851562 142.671875 202.199219 143.140625 C 202.550781 143.609375 203.027344 143.847656 203.632812 143.847656 C 204.230469 143.847656 204.703125 143.609375 205.054688 143.140625 C 205.402344 142.667969 205.578125 142.023438 205.578125 141.210938 C 205.578125 140.398438 205.402344 139.757812 205.054688 139.285156 C 204.703125 138.808594 204.230469 138.574219 203.632812 138.574219 Z M 203.632812 137.621094 C 204.609375 137.621094 205.375 137.9375 205.933594 138.574219 C 206.492188 139.207031 206.769531 140.085938 206.769531 141.210938 C 206.769531 142.328125 206.492188 143.207031 205.933594 143.84375 C 205.375 144.480469 204.609375 144.800781 203.632812 144.800781 C 202.652344 144.800781 201.882812 144.480469 201.328125 143.84375 C 200.773438 143.207031 200.496094 142.328125 200.496094 141.210938 C 200.496094 140.085938 200.773438 139.207031 201.328125 138.574219 C 201.882812 137.9375 202.652344 137.621094 203.632812 137.621094 Z M 203.632812 137.621094 "/>
<path style=" stroke:none;fill-rule:nonzero;fill:rgb(0%,0%,0%);fill-opacity:1;" d="M 208.628906 137.785156 L 209.753906 137.785156 L 209.753906 144.621094 L 208.628906 144.621094 Z M 208.628906 135.125 L 209.753906 135.125 L 209.753906 136.546875 L 208.628906 136.546875 Z M 208.628906 135.125 "/>
<path style=" stroke:none;fill-rule:nonzero;fill:rgb(0%,0%,0%);fill-opacity:1;" d="M 217.789062 140.496094 L 217.789062 144.621094 L 216.664062 144.621094 L 216.664062 140.53125 C 216.664062 139.882812 216.539062 139.402344 216.285156 139.082031 C 216.03125 138.757812 215.65625 138.597656 215.152344 138.597656 C 214.542969 138.597656 214.066406 138.792969 213.714844 139.179688 C 213.363281 139.5625 213.191406 140.089844 213.191406 140.757812 L 213.191406 144.621094 L 212.0625 144.621094 L 212.0625 137.785156 L 213.191406 137.785156 L 213.191406 138.847656 C 213.460938 138.4375 213.777344 138.128906 214.140625 137.925781 C 214.503906 137.722656 214.925781 137.621094 215.402344 137.621094 C 216.1875 137.621094 216.78125 137.863281 217.183594 138.351562 C 217.585938 138.835938 217.789062 139.550781 217.789062 140.496094 Z M 217.789062 140.496094 "/>
<path style=" stroke:none;fill-rule:nonzero;fill:rgb(0%,0%,0%);fill-opacity:1;" d="M 221.136719 135.84375 L 221.136719 137.785156 L 223.449219 137.785156 L 223.449219 138.660156 L 221.136719 138.660156 L 221.136719 142.371094 C 221.136719 142.925781 221.214844 143.285156 221.367188 143.445312 C 221.519531 143.601562 221.828125 143.683594 222.296875 143.683594 L 223.449219 143.683594 L 223.449219 144.621094 L 222.296875 144.621094 C 221.429688 144.621094 220.832031 144.460938 220.503906 144.136719 C 220.171875 143.8125 220.007812 143.222656 220.007812 142.371094 L 220.007812 138.660156 L 219.183594 138.660156 L 219.183594 137.785156 L 220.007812 137.785156 L 220.007812 135.84375 Z M 221.136719 135.84375 "/>
</g>
</svg>
